<svg width="182" height="29" viewBox="0 0 182 29" fill="none" xmlns="http://www.w3.org/2000/svg">
<path d="M18.288 28.028H11.52C11.424 27.716 10.8 26.132 9.648 23.276C8.376 20.132 7.488 18.092 6.984 17.156C6.84 17.636 6.72 18.416 6.624 19.496C6.528 20.576 6.48 21.824 6.48 23.24C6.48 24.128 6.504 24.968 6.552 25.76C6.6 26.528 6.744 27.284 6.984 28.028H0.684V13.556C1.452 13.484 2.112 13.4 2.664 13.304C3.24 13.208 3.636 13.136 3.852 13.088C3.084 12.608 2.568 12.284 2.304 12.116C1.896 11.876 1.356 11.6 0.684 11.288V0.919999H6.984C6.84 1.424 6.72 2.228 6.624 3.332C6.528 4.436 6.48 5.6 6.48 6.824C6.48 7.88 6.516 8.828 6.588 9.668C6.66 10.484 6.792 11.18 6.984 11.756C7.512 10.628 8.172 9.056 8.964 7.04C9.948 4.52 10.644 2.48 11.052 0.919999H17.388C16.572 2.672 15.636 4.748 14.58 7.148C13.908 8.684 13.26 10.22 12.636 11.756C12.396 12.356 12.156 12.944 11.916 13.52C11.916 13.616 12.288 14.372 13.032 15.788C13.8 17.18 14.352 18.092 14.688 18.524C14.088 19.052 13.5 19.496 12.924 19.856C12.684 20 12.06 20.312 11.052 20.792C11.46 21.2 11.664 21.44 11.664 21.512C11.664 21.584 11.76 21.944 11.952 22.592C12.216 22.328 12.828 21.704 13.788 20.72C14.148 20.36 14.448 20.072 14.688 19.856C15.216 20.768 15.852 22.064 16.596 23.744C17.34 25.424 17.904 26.852 18.288 28.028ZM4.248 13.988L3.852 13.556L4.248 13.988ZM40.8974 28.208C40.2014 28.328 39.3254 28.46 38.2694 28.604C37.2374 28.724 36.3974 28.784 35.7494 28.784C35.1014 28.784 34.6574 28.736 34.4174 28.64C34.2014 28.52 34.0214 28.34 33.8774 28.1C33.7094 26.348 33.3854 25.016 32.9054 24.104C32.4254 23.168 31.5734 22.7 30.3494 22.7C29.8694 22.7 29.4614 22.688 29.1254 22.664C28.7894 22.64 28.4774 22.616 28.1894 22.592C27.6134 22.592 27.2414 22.82 27.0734 23.276C26.9054 23.708 26.6894 24.98 26.4254 27.092C26.3534 27.548 26.1254 27.872 25.7414 28.064C25.3574 28.232 24.8174 28.316 24.1214 28.316C23.7614 28.316 23.1134 28.28 22.1774 28.208C21.2414 28.136 20.4974 28.1 19.9454 28.1C19.9454 27.5 20.1014 26.648 20.4134 25.544C21.3254 22.28 21.8054 20.576 21.8534 20.432C22.4774 20.432 22.9214 20.42 23.1854 20.396C23.4494 20.348 23.7614 20.228 24.1214 20.036C23.9054 19.964 23.6894 19.916 23.4734 19.892C23.2574 19.844 23.0414 19.82 22.8254 19.82H22.0334C22.0334 19.34 22.2374 18.2 22.6454 16.4C23.4134 13.016 24.0374 10.076 24.5174 7.58C24.9014 5.612 25.2734 4.1 25.6334 3.044C25.8494 2.396 26.1134 1.904 26.4254 1.568C26.5214 1.52 26.7014 1.46 26.9654 1.388C27.5414 1.22 28.1894 1.136 28.9094 1.136C29.7974 1.136 31.0334 1.28 32.6174 1.568C32.6174 1.952 33.1334 3.86 34.1654 7.292C35.0774 10.364 36.1094 13.664 37.2614 17.192C38.4134 20.72 39.1454 22.844 39.4574 23.564C39.2174 23.516 39.0614 23.48 38.9894 23.456C38.9174 23.408 38.8694 23.384 38.8454 23.384C38.7254 23.432 38.5094 23.492 38.1974 23.564C38.8454 23.852 39.3494 24.284 39.7094 24.86C39.7574 24.932 40.1534 26.048 40.8974 28.208ZM26.6054 19.388H25.1654H26.6054ZM24.9494 19.604H24.5174H24.9494ZM30.5294 16.472C30.4334 15.728 30.3014 15.068 30.1334 14.492C29.7494 13.172 29.5454 12.452 29.5214 12.332C29.2334 12.836 29.0174 13.604 28.8734 14.636C28.7534 15.644 28.4774 16.4 28.0454 16.904C28.9334 16.616 29.7614 16.472 30.5294 16.472ZM38.1974 23.348C38.3174 23.372 38.4134 23.396 38.4854 23.42C38.5814 23.42 38.6654 23.42 38.7374 23.42C38.7374 23.348 37.5734 22.94 35.2454 22.196C32.9414 21.452 31.6814 21.08 31.4654 21.08C31.5614 21.152 31.6694 21.212 31.7894 21.26C33.6374 22.004 34.6094 22.388 34.7054 22.412C35.5934 22.724 36.7574 23.036 38.1974 23.348ZM31.5734 21.044C31.5734 21.068 31.4654 21.02 31.2494 20.9C31.0334 20.78 30.8654 20.684 30.7454 20.612C30.7694 20.636 30.8414 20.672 30.9614 20.72C31.1054 20.744 31.3094 20.852 31.5734 21.044ZM49.7216 28.172C49.0016 28.004 47.8496 27.92 46.2656 27.92C44.6576 27.92 43.3736 28.016 42.4136 28.208C42.3416 27.536 42.2696 26.696 42.1976 25.688C42.1496 24.656 42.1256 23.72 42.1256 22.88C42.1256 21.944 42.1736 20.984 42.2696 20C42.3656 19.016 42.4136 18.356 42.4136 18.02C42.4136 16.916 42.3896 16.088 42.3416 15.536C42.2936 14.984 42.2576 14.504 42.2336 14.096C42.2336 13.88 42.2936 13.7 42.4136 13.556C42.7016 13.316 42.9656 13.076 43.2056 12.836C42.9896 12.668 42.7256 12.584 42.4136 12.584C42.4136 10.352 42.4376 8.696 42.4856 7.616C42.6296 4.4 42.7016 2.324 42.7016 1.388C43.3976 1.388 44.5976 1.328 46.3016 1.208C48.0056 1.064 49.1456 0.943998 49.7216 0.847998C49.7456 0.967999 49.7576 1.28 49.7576 1.784C49.7576 2.264 49.7576 2.636 49.7576 2.9V3.656V4.412V5.096V5.744V6.356V6.896V7.4V7.832C49.7576 8.288 49.7456 8.756 49.7216 9.236C49.7216 9.692 49.7216 10.148 49.7216 10.604V11C48.2816 11.192 47.1536 11.552 46.3376 12.08C46.6496 12.08 47.0576 12.032 47.5616 11.936C48.0656 11.84 48.4376 11.792 48.6776 11.792C48.9656 11.792 49.3136 11.864 49.7216 12.008V28.172ZM45.5816 12.584H44.2496H45.5816ZM65.9576 22.628C65.7656 24.524 64.6616 25.928 62.6456 26.84C61.1816 27.512 59.4896 27.848 57.5696 27.848C57.2096 27.848 56.8736 27.824 56.5616 27.776C56.2736 27.728 56.0816 27.68 55.9856 27.632C54.2576 26.768 53.0936 25.652 52.4936 24.284C52.0616 23.3 51.8456 21.872 51.8456 20C51.8456 19.544 51.8456 19.088 51.8456 18.632C51.8456 18.152 51.8576 17.672 51.8816 17.192H57.3176V22.196C57.4136 22.244 57.4976 22.292 57.5696 22.34C57.9296 22.532 58.6016 22.628 59.5856 22.628C59.9216 21.476 60.1496 20.492 60.2696 19.676C60.4136 18.86 60.4856 18.152 60.4856 17.552C60.4856 17.048 60.4376 16.664 60.3416 16.4C60.2696 16.112 60.2096 15.872 60.1616 15.68C60.1616 15.536 60.4256 15.308 60.9536 14.996C62.1536 14.252 63.3656 13.472 64.5896 12.656C64.3016 12.608 64.0376 12.572 63.7976 12.548C63.5816 12.5 63.3656 12.476 63.1496 12.476C62.8136 12.476 62.5256 12.512 62.2856 12.584C61.3016 12.872 60.5576 13.052 60.0536 13.124V0.451998H65.9576V22.628ZM88.7887 23.852C88.7887 24.236 88.1527 25.136 86.8807 26.552C85.5127 28.088 84.4807 28.856 83.7847 28.856H72.9487C72.2287 28.856 71.3047 28.22 70.1767 26.948C69.4327 26.084 68.6887 25.22 67.9447 24.356V12.224C68.4967 12.488 68.8567 12.68 69.0247 12.8C69.2167 12.896 69.5527 13.136 70.0327 13.52L71.0767 12.764C69.9247 12.38 69.3247 12.176 69.2767 12.152C69.2287 12.128 68.7847 11.888 67.9447 11.432V1.424L74.7847 0.595999C75.2647 0.595999 75.5407 0.775999 75.6127 1.136C75.7807 2.168 75.8647 3.188 75.8647 4.196C75.8647 4.868 75.7447 6.416 75.5047 8.84C75.3847 10.064 75.3247 11.108 75.3247 11.972C74.9887 11.972 74.6887 11.972 74.4247 11.972C74.1607 11.972 73.9327 11.96 73.7407 11.936C73.5007 11.936 73.0567 12.032 72.4087 12.224C73.0567 12.44 73.5247 12.596 73.8127 12.692C74.1247 12.764 74.6287 12.872 75.3247 13.016C75.2527 13.784 75.1807 14.564 75.1087 15.356C75.0367 16.124 75.0007 16.808 75.0007 17.408C75.0007 18.8 75.2167 19.868 75.6487 20.612C76.1047 21.356 76.9207 21.728 78.0967 21.728C79.5367 21.728 80.4727 21.488 80.9047 21.008C81.3367 20.528 81.5527 19.604 81.5527 18.236C81.5527 17.9 81.5287 17.156 81.4807 16.004C81.4327 14.852 81.4087 13.856 81.4087 13.016C82.6087 12.824 83.3047 12.716 83.4967 12.692C83.6407 12.596 83.9167 12.356 84.3247 11.972H81.2647V0.847998H85.8727C86.4727 1.064 86.9767 1.22 87.3847 1.316C87.7927 1.388 88.2607 1.424 88.7887 1.424V11.432C88.3807 11.648 87.8527 11.888 87.2047 12.152C86.5567 12.392 86.0287 12.596 85.6207 12.764C85.8367 12.956 85.9207 13.124 85.8727 13.268C86.0407 13.436 86.2207 13.52 86.4127 13.52C86.6047 13.52 86.9407 13.364 87.4207 13.052C87.9247 12.716 88.3807 12.44 88.7887 12.224V23.852ZM111.64 23.852C111.64 24.236 111.004 25.136 109.732 26.552C108.364 28.088 107.332 28.856 106.636 28.856H95.8002C95.0802 28.856 94.1562 28.22 93.0282 26.948C92.2842 26.084 91.5402 25.22 90.7962 24.356V12.224C91.3482 12.488 91.7082 12.68 91.8762 12.8C92.0682 12.896 92.4042 13.136 92.8842 13.52L93.9282 12.764C92.7762 12.38 92.1762 12.176 92.1282 12.152C92.0802 12.128 91.6362 11.888 90.7962 11.432V1.424L97.6362 0.595999C98.1162 0.595999 98.3922 0.775999 98.4642 1.136C98.6322 2.168 98.7162 3.188 98.7162 4.196C98.7162 4.868 98.5962 6.416 98.3562 8.84C98.2362 10.064 98.1762 11.108 98.1762 11.972C97.8402 11.972 97.5402 11.972 97.2762 11.972C97.0122 11.972 96.7842 11.96 96.5922 11.936C96.3522 11.936 95.9082 12.032 95.2602 12.224C95.9082 12.44 96.3762 12.596 96.6642 12.692C96.9762 12.764 97.4802 12.872 98.1762 13.016C98.1042 13.784 98.0322 14.564 97.9602 15.356C97.8882 16.124 97.8522 16.808 97.8522 17.408C97.8522 18.8 98.0682 19.868 98.5002 20.612C98.9562 21.356 99.7722 21.728 100.948 21.728C102.388 21.728 103.324 21.488 103.756 21.008C104.188 20.528 104.404 19.604 104.404 18.236C104.404 17.9 104.38 17.156 104.332 16.004C104.284 14.852 104.26 13.856 104.26 13.016C105.46 12.824 106.156 12.716 106.348 12.692C106.492 12.596 106.768 12.356 107.176 11.972H104.116V0.847998H108.724C109.324 1.064 109.828 1.22 110.236 1.316C110.644 1.388 111.112 1.424 111.64 1.424V11.432C111.232 11.648 110.704 11.888 110.056 12.152C109.408 12.392 108.88 12.596 108.472 12.764C108.688 12.956 108.772 13.124 108.724 13.268C108.892 13.436 109.072 13.52 109.264 13.52C109.456 13.52 109.792 13.364 110.272 13.052C110.776 12.716 111.232 12.44 111.64 12.224V23.852Z" fill="#FF002A"/>
<path d="M128.012 16.76C128.012 21.608 127.688 24.548 127.04 25.58C126.2 26.924 123.92 27.596 120.2 27.596C117.464 27.356 115.616 26.588 114.656 25.292C113.912 24.284 113.54 22.592 113.54 20.216C113.54 19.784 113.552 19.052 113.576 18.02C113.6 16.988 113.612 16.172 113.612 15.572C113.612 14.876 113.6 14.168 113.576 13.448C113.576 12.728 113.576 11.996 113.576 11.252C113.576 8.468 113.84 6.356 114.368 4.916C115.088 2.924 116.432 1.664 118.4 1.136C119.672 0.799998 120.74 0.631998 121.604 0.631998C123.932 0.631998 125.624 1.616 126.68 3.584C127.568 5.24 128.012 7.628 128.012 10.748H122.612V5.924C121.82 5.612 121.016 5.408 120.2 5.312C120.032 5.648 119.924 5.924 119.876 6.14C119.684 6.74 119.588 8.468 119.588 11.324C119.036 11.084 118.592 10.88 118.256 10.712C118.136 10.664 118.016 10.604 117.896 10.532C117.872 10.58 117.788 10.628 117.644 10.676C117.5 10.724 117.152 10.748 116.6 10.748C117.872 11.684 118.772 12.716 119.3 13.844C119.732 14.78 119.948 15.884 119.948 17.156C119.948 17.708 119.912 18.368 119.84 19.136C119.672 20.96 119.588 22.172 119.588 22.772C119.852 22.892 120.104 23 120.344 23.096C120.608 23.192 121.16 23.276 122 23.348C122.216 22.58 122.372 21.86 122.468 21.188C122.588 20.516 122.648 19.904 122.648 19.352C122.648 18.944 122.636 18.56 122.612 18.2C122.612 17.816 122.612 17.468 122.612 17.156V16.76H128.012ZM115.988 11.936C115.964 11.936 115.94 11.876 115.916 11.756C115.916 11.636 115.916 11.444 115.916 11.18C115.916 10.844 115.916 10.496 115.916 10.136C115.94 10.136 115.964 10.136 115.988 10.136C115.988 10.328 116 10.532 116.024 10.748C116.048 10.964 116.06 11.132 116.06 11.252C116.06 11.372 116.036 11.6 115.988 11.936ZM145.822 28.28H139.738V16.616H136.498V28.28H130.45V14.744C130.81 14.744 131.122 14.756 131.386 14.78C131.674 14.78 131.902 14.78 132.07 14.78C132.286 14.78 132.514 14.768 132.754 14.744C132.994 14.696 133.462 14.552 134.158 14.312C133.318 14.048 132.838 13.904 132.718 13.88C132.598 13.856 132.394 13.844 132.106 13.844H130.882V0.343998H140.674C141.298 0.343998 142.21 0.883998 143.41 1.964C144.49 2.948 145.294 3.644 145.822 4.052V5.924C145.198 6.092 144.574 6.248 143.95 6.392C143.59 6.464 143.122 6.608 142.546 6.824C143.122 7.112 143.638 7.328 144.094 7.472C144.55 7.592 145.126 7.7 145.822 7.796V11.504C144.742 12.296 143.998 12.824 143.59 13.088C143.182 13.352 142.894 13.484 142.726 13.484C142.702 13.484 142.546 13.376 142.258 13.16C141.994 12.92 141.562 12.8 140.962 12.8C140.65 12.8 140.242 12.836 139.738 12.908C140.386 13.532 141.346 14.18 142.618 14.852C143.914 15.524 144.982 16.268 145.822 17.084V28.28ZM139.27 11.504V5.456H136.93V11.504H139.27ZM158.624 28.28C158.504 28.256 158.276 28.148 157.94 27.956C157.316 27.596 156.872 27.416 156.608 27.416C156.488 27.392 156.344 27.488 156.176 27.704C156.032 27.896 155.888 27.992 155.744 27.992C155.288 27.992 154.148 28.016 152.324 28.064C150.5 28.112 148.856 28.136 147.392 28.136C147.392 26.408 147.464 23.708 147.608 20.036C147.752 16.364 147.824 13.304 147.824 10.856C147.824 10.712 148.136 10.352 148.76 9.776C149.096 9.464 149.264 9.248 149.264 9.128C149.072 9.152 148.892 9.164 148.724 9.164C148.508 9.212 148.304 9.248 148.112 9.272C147.776 7.112 147.608 4.4 147.608 1.136H158.444V5.96H153.62V11.396H157.832V15.644H153.62V23.456H158.444L158.624 28.28ZM181.452 4.16C181.14 5.696 180.828 7.232 180.516 8.768C180.276 9.44 179.208 10.22 177.312 11.108C178.08 11.324 178.56 11.456 178.752 11.504C178.968 11.528 179.412 11.54 180.084 11.54C179.868 12.38 179.532 14 179.076 16.4C178.908 17.312 178.776 18.008 178.68 18.488L177.312 17.588V28.208H172.2C172.2 25.976 172.116 23.912 171.948 22.016C171.708 19.448 171.336 17.504 170.832 16.184C170.184 17.312 169.692 19.388 169.356 22.412C169.116 24.596 168.996 26.528 168.996 28.208H164.388C163.5 23.456 163.056 20.756 163.056 20.108C163.056 19.58 163.164 19.112 163.38 18.704C163.764 18.128 164.1 17.6 164.388 17.12C163.956 17.12 163.62 17.156 163.38 17.228C163.164 17.276 162.888 17.396 162.552 17.588C162.432 16.244 162.132 14.108 161.652 11.18C161.076 7.7 160.596 5.36 160.212 4.16V0.451998H165.792C165.792 2.444 166.092 5.156 166.692 8.588C167.004 10.364 167.16 11.972 167.16 13.412C168.024 13.532 168.516 13.592 168.636 13.592C168.78 13.592 168.984 13.592 169.248 13.592C169.632 13.592 170.16 13.532 170.832 13.412C170.232 12.956 169.764 12.656 169.428 12.512C169.116 12.344 168.66 12.176 168.06 12.008C168.252 11.336 168.42 10.28 168.564 8.84C168.612 8.36 169.068 7.724 169.932 6.932C169.62 6.452 169.404 6.116 169.284 5.924C169.092 5.612 168.996 5.252 168.996 4.844C169.116 4.388 169.224 3.764 169.32 2.972C169.416 2.156 169.464 1.316 169.464 0.451998H171.768L173.172 14.78C173.988 13.388 174.648 10.496 175.152 6.104C175.464 3.272 175.716 1.388 175.908 0.451998H181.452V4.16Z" fill="white"/>
</svg>
