<svg width="450" height="240" viewBox="0 0 450 240" fill="none" xmlns="http://www.w3.org/2000/svg">
<path d="M71.8811 112.073H44.5393C44.1514 110.813 41.6306 104.414 36.9766 92.8758C31.8379 80.1745 28.2505 71.9331 26.2144 68.1518C25.6327 70.0909 25.1479 73.242 24.7601 77.6051C24.3723 81.9682 24.1783 87.0099 24.1783 92.7304C24.1783 96.3178 24.2753 99.7113 24.4692 102.911C24.6631 106.013 25.2449 109.068 26.2144 112.073H0.763269V53.6083C3.86589 53.3174 6.5322 52.9781 8.76221 52.5902C11.0892 52.2024 12.689 51.9115 13.5616 51.7176C10.459 49.7785 8.37438 48.4696 7.30785 47.7909C5.65959 46.8213 3.47806 45.7063 0.763269 44.4459V2.56053H26.2144C25.6327 4.59662 25.1479 7.84467 24.7601 12.3047C24.3723 16.7647 24.1783 21.4671 24.1783 26.4119C24.1783 30.678 24.3238 34.5078 24.6146 37.9013C24.9055 41.1978 25.4388 44.0096 26.2144 46.3365C28.3475 41.7796 31.0138 35.4289 34.2134 27.2845C38.1886 17.1041 41.0003 8.86272 42.6486 2.56053H68.2452C64.9487 9.63838 61.1674 18.0251 56.9013 27.7208C54.1865 33.9261 51.5686 40.1313 49.0478 46.3365C48.0782 48.7604 47.1086 51.1359 46.1391 53.4629C46.1391 53.8507 47.6419 56.9048 50.6475 62.6253C53.7502 68.2488 55.9802 71.9331 57.3376 73.6784C54.9136 75.8114 52.5382 77.6051 50.2112 79.0595C49.2417 79.6412 46.7208 80.9016 42.6486 82.8408C44.2969 84.489 45.121 85.4586 45.121 85.7495C45.121 86.0403 45.5088 87.4947 46.2845 90.1125C47.351 89.046 49.8234 86.5251 53.7017 82.5499C55.156 81.0955 56.368 79.9321 57.3376 79.0595C59.4706 82.7438 62.04 87.9795 65.0456 94.7665C68.0513 101.553 70.3298 107.322 71.8811 112.073ZM15.1614 55.3535L13.5616 53.6083L15.1614 55.3535ZM163.22 112.8C160.408 113.285 156.869 113.818 152.603 114.4C148.434 114.885 145.041 115.127 142.423 115.127C139.805 115.127 138.011 114.933 137.042 114.546C136.169 114.061 135.442 113.334 134.86 112.364C134.182 105.286 132.873 99.9052 130.933 96.2208C128.994 92.4395 125.552 90.5488 120.608 90.5488C118.668 90.5488 117.02 90.5004 115.663 90.4034C114.305 90.3064 113.045 90.2095 111.881 90.1125C109.554 90.1125 108.052 91.0336 107.373 92.8758C106.694 94.621 105.822 99.7597 104.755 108.292C104.464 110.134 103.543 111.443 101.992 112.219C100.441 112.897 98.259 113.237 95.4473 113.237C93.9929 113.237 91.3751 113.091 87.5938 112.8C83.8125 112.51 80.8068 112.364 78.5768 112.364C78.5768 109.94 79.207 106.498 80.4674 102.038C84.1518 88.8521 86.0909 81.9682 86.2849 81.3864C88.8057 81.3864 90.5994 81.3379 91.666 81.241C92.7325 81.0471 93.9929 80.5623 95.4473 79.7866C94.5747 79.4958 93.7021 79.3018 92.8294 79.2049C91.9568 79.011 91.0842 78.914 90.2116 78.914H87.012C87.012 76.9749 87.8362 72.3694 89.4844 65.0977C92.587 51.4268 95.1079 39.5496 97.0471 29.466C98.5984 21.5156 100.101 15.4073 101.556 11.1412C102.428 8.52338 103.495 6.53576 104.755 5.17837C105.143 4.98445 105.87 4.74206 106.937 4.45119C109.264 3.77249 111.881 3.43314 114.79 3.43314C118.378 3.43314 123.371 4.01488 129.77 5.17837C129.77 6.72967 131.855 14.4377 136.024 28.3026C139.708 40.713 143.877 54.0446 148.531 68.2972C153.185 82.5499 156.142 91.1306 157.403 94.0393C156.433 93.8454 155.803 93.6999 155.512 93.603C155.221 93.4091 155.027 93.3121 154.93 93.3121C154.445 93.506 153.573 93.7484 152.312 94.0393C154.93 95.2028 156.966 96.948 158.421 99.275C158.615 99.5658 160.214 104.074 163.22 112.8ZM105.482 77.1688H99.6649H105.482ZM98.7923 78.0414H97.0471H98.7923ZM121.335 65.3885C120.947 62.3829 120.414 59.7166 119.735 57.3896C118.184 52.057 117.36 49.1483 117.263 48.6635C116.099 50.6996 115.226 53.8022 114.645 57.9713C114.16 62.0435 113.045 65.0977 111.3 67.1338C114.887 65.9703 118.232 65.3885 121.335 65.3885ZM152.312 93.1667C152.797 93.2636 153.185 93.3606 153.476 93.4575C153.864 93.4575 154.203 93.4575 154.494 93.4575C154.494 93.1667 149.792 91.5184 140.387 88.5127C131.079 85.5071 125.989 84.0043 125.116 84.0043C125.504 84.2951 125.94 84.5375 126.425 84.7314C133.891 87.7371 137.817 89.2884 138.205 89.3854C141.793 90.6458 146.495 91.9062 152.312 93.1667ZM125.552 83.8588C125.552 83.9558 125.116 83.7619 124.243 83.2771C123.371 82.7923 122.692 82.4045 122.207 82.1136C122.304 82.2106 122.595 82.356 123.08 82.5499C123.662 82.6469 124.486 83.0832 125.552 83.8588ZM198.869 112.655C195.96 111.976 191.306 111.637 184.907 111.637C178.411 111.637 173.224 112.025 169.345 112.8C169.055 110.086 168.764 106.692 168.473 102.62C168.279 98.4508 168.182 94.6695 168.182 91.276C168.182 87.4947 168.376 83.6164 168.764 79.6412C169.151 75.666 169.345 72.9997 169.345 71.6423C169.345 67.1822 169.248 63.8372 169.055 61.6072C168.861 59.3772 168.715 57.4381 168.618 55.7898C168.618 54.9172 168.861 54.19 169.345 53.6083C170.509 52.6387 171.575 51.6692 172.545 50.6996C171.672 50.0209 170.606 49.6815 169.345 49.6815C169.345 40.6646 169.442 33.9745 169.636 29.6115C170.218 16.6193 170.509 8.2325 170.509 4.45119C173.321 4.45119 178.168 4.2088 185.052 3.72401C191.936 3.14227 196.542 2.65748 198.869 2.26966C198.966 2.75444 199.014 4.01488 199.014 6.05097C199.014 7.99011 199.014 9.49294 199.014 10.5595V13.6136V16.6677V19.431V22.0488V24.5213V26.7028V28.7389V30.4841C199.014 32.3263 198.966 34.2169 198.869 36.1561C198.869 37.9982 198.869 39.8404 198.869 41.6826V43.2824C193.051 44.058 188.494 45.5124 185.198 47.6454C186.458 47.6454 188.107 47.4515 190.143 47.0637C192.179 46.6759 193.682 46.482 194.651 46.482C195.815 46.482 197.22 46.7728 198.869 47.3546V112.655ZM182.144 49.6815H176.763H182.144ZM264.46 90.258C263.684 97.9176 259.224 103.59 251.08 107.274C245.166 109.989 238.33 111.346 230.574 111.346C229.119 111.346 227.762 111.249 226.501 111.055C225.338 110.861 224.562 110.667 224.174 110.473C217.194 106.983 212.491 102.475 210.067 96.948C208.322 92.9728 207.449 87.2038 207.449 79.6412C207.449 77.799 207.449 75.9568 207.449 74.1147C207.449 72.1755 207.498 70.2364 207.595 68.2972H229.556V88.5127C229.943 88.7067 230.283 88.9006 230.574 89.0945C232.028 89.8701 234.743 90.258 238.718 90.258C240.075 85.604 240.996 81.6288 241.481 78.3323C242.063 75.0357 242.354 72.1755 242.354 69.7516C242.354 67.7155 242.16 66.1642 241.772 65.0977C241.481 63.9342 241.239 62.9646 241.045 62.189C241.045 61.6072 242.111 60.6861 244.245 59.4257C249.092 56.42 253.989 53.2689 258.933 49.9724C257.77 49.7785 256.703 49.6331 255.734 49.5361C254.861 49.3422 253.989 49.2452 253.116 49.2452C251.759 49.2452 250.595 49.3907 249.626 49.6815C245.65 50.845 242.645 51.5722 240.609 51.8631V0.669871H264.46V90.258ZM356.694 95.2028C356.694 96.7541 354.125 100.39 348.986 106.11C343.46 112.316 339.291 115.418 336.479 115.418H292.703C289.794 115.418 286.061 112.849 281.504 107.71C278.499 104.22 275.493 100.729 272.487 97.2389V48.2272C274.717 49.2937 276.172 50.0694 276.85 50.5542C277.626 50.942 278.983 51.9115 280.923 53.4629L285.14 50.4087C280.486 48.8574 278.062 48.0333 277.868 47.9363C277.675 47.8394 275.881 46.8698 272.487 45.0276V4.59662L300.12 1.25161C302.059 1.25161 303.174 1.97879 303.465 3.43314C304.144 7.60229 304.483 11.723 304.483 15.7951C304.483 18.5099 303.998 24.7636 303.029 34.5563C302.544 39.5011 302.302 43.7187 302.302 47.2091C300.944 47.2091 299.732 47.2091 298.666 47.2091C297.599 47.2091 296.678 47.1607 295.902 47.0637C294.933 47.0637 293.139 47.4515 290.521 48.2272C293.139 49.0998 295.03 49.73 296.193 50.1178C297.454 50.4087 299.49 50.845 302.302 51.4268C302.011 54.5294 301.72 57.6805 301.429 60.8801C301.138 63.9827 300.993 66.7459 300.993 69.1699C300.993 74.7934 301.865 79.1079 303.61 82.1136C305.453 85.1193 308.749 86.6221 313.5 86.6221C319.317 86.6221 323.099 85.6525 324.844 83.7134C326.589 81.7742 327.462 78.0414 327.462 72.5149C327.462 71.1575 327.365 68.1518 327.171 63.4979C326.977 58.844 326.88 54.8203 326.88 51.4268C331.728 50.6511 334.54 50.2148 335.315 50.1178C335.897 49.73 337.012 48.7605 338.66 47.2091H326.298V2.26966H344.914C347.338 3.14227 349.374 3.77249 351.022 4.16031C352.671 4.45119 354.561 4.59662 356.694 4.59662V45.0276C355.046 45.9002 352.913 46.8698 350.295 47.9363C347.677 48.9059 345.544 49.73 343.896 50.4087C344.769 51.1844 345.108 51.8631 344.914 52.4448C345.593 53.1235 346.32 53.4629 347.096 53.4629C347.871 53.4629 349.229 52.8326 351.168 51.5722C353.204 50.2148 355.046 49.0998 356.694 48.2272V95.2028ZM449.012 95.2028C449.012 96.7541 446.442 100.39 441.304 106.11C435.777 112.316 431.608 115.418 428.796 115.418H385.02C382.111 115.418 378.379 112.849 373.822 107.71C370.816 104.22 367.81 100.729 364.805 97.2389V48.2272C367.035 49.2937 368.489 50.0694 369.168 50.5542C369.943 50.942 371.301 51.9115 373.24 53.4629L377.458 50.4087C372.804 48.8574 370.38 48.0333 370.186 47.9363C369.992 47.8394 368.198 46.8698 364.805 45.0276V4.59662L392.437 1.25161C394.376 1.25161 395.491 1.97879 395.782 3.43314C396.461 7.60229 396.8 11.723 396.8 15.7951C396.8 18.5099 396.316 24.7636 395.346 34.5563C394.861 39.5011 394.619 43.7187 394.619 47.2091C393.261 47.2091 392.05 47.2091 390.983 47.2091C389.916 47.2091 388.995 47.1607 388.22 47.0637C387.25 47.0637 385.456 47.4515 382.839 48.2272C385.456 49.0998 387.347 49.73 388.511 50.1178C389.771 50.4087 391.807 50.845 394.619 51.4268C394.328 54.5294 394.037 57.6805 393.746 60.8801C393.455 63.9827 393.31 66.7459 393.31 69.1699C393.31 74.7934 394.183 79.1079 395.928 82.1136C397.77 85.1193 401.066 86.6221 405.817 86.6221C411.635 86.6221 415.416 85.6525 417.161 83.7134C418.907 81.7742 419.779 78.0414 419.779 72.5149C419.779 71.1575 419.682 68.1518 419.488 63.4979C419.294 58.844 419.197 54.8203 419.197 51.4268C424.045 50.6511 426.857 50.2148 427.633 50.1178C428.214 49.73 429.329 48.7605 430.978 47.2091H418.616V2.26966H437.231C439.655 3.14227 441.691 3.77249 443.34 4.16031C444.988 4.45119 446.879 4.59662 449.012 4.59662V45.0276C447.363 45.9002 445.23 46.8698 442.612 47.9363C439.995 48.9059 437.862 49.73 436.213 50.4087C437.086 51.1844 437.425 51.8631 437.231 52.4448C437.91 53.1235 438.637 53.4629 439.413 53.4629C440.189 53.4629 441.546 52.8326 443.485 51.5722C445.521 50.2148 447.363 49.0998 449.012 48.2272V95.2028Z" fill="#FF002A"/>
<path d="M59.9554 192.552C59.9554 212.137 58.6465 224.015 56.0287 228.184C52.6352 233.613 43.4243 236.328 28.396 236.328C17.3429 235.358 9.87721 232.256 5.99894 227.02C2.99328 222.948 1.49045 216.113 1.49045 206.514C1.49045 204.769 1.53892 201.811 1.63588 197.642C1.73284 193.473 1.78132 190.177 1.78132 187.753C1.78132 184.941 1.73284 182.081 1.63588 179.172C1.63588 176.263 1.63588 173.306 1.63588 170.3C1.63588 159.053 2.70241 150.521 4.83546 144.704C7.74416 136.656 13.1737 131.566 21.1242 129.433C26.2629 128.076 30.5775 127.397 34.0679 127.397C43.4727 127.397 50.3082 131.372 54.5743 139.323C58.1617 146.013 59.9554 155.66 59.9554 168.264H38.1401V148.776C34.9405 147.516 31.6925 146.691 28.396 146.304C27.7173 147.661 27.281 148.776 27.087 149.649C26.3114 152.073 25.9236 159.053 25.9236 170.591C23.6936 169.622 21.8999 168.798 20.5425 168.119C20.0577 167.925 19.5729 167.683 19.0881 167.392C18.9912 167.586 18.6518 167.78 18.0701 167.973C17.4883 168.167 16.0824 168.264 13.8524 168.264C18.9911 172.046 22.627 176.215 24.7601 180.772C26.5053 184.553 27.3779 189.013 27.3779 194.152C27.3779 196.382 27.2325 199.048 26.9416 202.151C26.2629 209.519 25.9236 214.416 25.9236 216.84C26.9901 217.324 28.0081 217.761 28.9777 218.149C30.0442 218.536 32.2742 218.876 35.6677 219.167C36.5403 216.064 37.1706 213.155 37.5584 210.441C38.0432 207.726 38.2856 205.253 38.2856 203.023C38.2856 201.375 38.2371 199.824 38.1401 198.369C38.1401 196.818 38.1401 195.412 38.1401 194.152V192.552H59.9554ZM11.38 173.064C11.2831 173.064 11.1861 172.821 11.0892 172.337C11.0892 171.852 11.0892 171.076 11.0892 170.01C11.0892 168.652 11.0892 167.246 11.0892 165.792C11.1861 165.792 11.2831 165.792 11.38 165.792C11.38 166.568 11.4285 167.392 11.5255 168.264C11.6224 169.137 11.6709 169.816 11.6709 170.3C11.6709 170.785 11.574 171.706 11.38 173.064ZM131.906 239.091H107.328V191.97H94.2383V239.091H69.8052V184.408C71.2596 184.408 72.52 184.456 73.5865 184.553C74.75 184.553 75.6711 184.553 76.3498 184.553C77.2224 184.553 78.1435 184.505 79.1131 184.408C80.0826 184.214 81.9733 183.632 84.7851 182.662C81.3916 181.596 79.4524 181.014 78.9676 180.917C78.4829 180.82 77.6587 180.772 76.4952 180.772H71.5504V126.234H111.109C113.63 126.234 117.314 128.415 122.162 132.778C126.525 136.753 129.773 139.565 131.906 141.213V148.776C129.385 149.455 126.864 150.085 124.343 150.667C122.889 150.958 120.998 151.539 118.671 152.412C120.998 153.575 123.083 154.448 124.925 155.03C126.767 155.515 129.094 155.951 131.906 156.339V171.318C127.543 174.518 124.537 176.651 122.889 177.718C121.241 178.784 120.077 179.317 119.399 179.317C119.302 179.317 118.671 178.881 117.508 178.009C116.441 177.039 114.696 176.554 112.272 176.554C111.012 176.554 109.364 176.7 107.328 176.99C109.945 179.511 113.824 182.129 118.962 184.844C124.198 187.559 128.513 190.564 131.906 193.861V239.091ZM105.437 171.318V146.885H95.9836V171.318H105.437ZM183.624 239.091C183.139 238.994 182.218 238.558 180.861 237.782C178.34 236.328 176.546 235.601 175.48 235.601C174.995 235.504 174.413 235.892 173.735 236.764C173.153 237.54 172.571 237.928 171.989 237.928C170.147 237.928 165.542 238.025 158.173 238.219C150.804 238.413 144.163 238.51 138.248 238.51C138.248 231.529 138.539 220.621 139.121 205.787C139.703 190.952 139.994 178.59 139.994 168.701C139.994 168.119 141.254 166.665 143.775 164.338C145.132 163.077 145.811 162.205 145.811 161.72C145.035 161.817 144.308 161.865 143.629 161.865C142.757 162.059 141.933 162.205 141.157 162.301C139.8 153.575 139.121 142.619 139.121 129.433H182.897V148.921H163.409V170.882H180.425V188.044H163.409V219.603H182.897L183.624 239.091ZM275.847 141.65C274.587 147.855 273.326 154.06 272.066 160.265C271.096 162.98 266.782 166.131 259.122 169.719C262.225 170.591 264.164 171.125 264.94 171.318C265.812 171.415 267.606 171.464 270.321 171.464C269.448 174.857 268.091 181.402 266.248 191.098C265.57 194.782 265.036 197.594 264.649 199.533L259.122 195.897V238.8H238.47C238.47 229.783 238.131 221.445 237.452 213.786C236.483 203.411 234.98 195.558 232.944 190.225C230.326 194.782 228.338 203.169 226.981 215.385C226.011 224.208 225.527 232.013 225.527 238.8H206.911C203.323 219.603 201.53 208.695 201.53 206.078C201.53 203.944 201.966 202.054 202.839 200.406C204.39 198.079 205.747 195.946 206.911 194.006C205.166 194.006 203.808 194.152 202.839 194.443C201.966 194.637 200.851 195.121 199.494 195.897C199.009 190.467 197.797 181.838 195.858 170.01C193.531 155.951 191.592 146.498 190.04 141.65V126.67H212.583C212.583 134.717 213.795 145.673 216.219 159.538C217.479 166.713 218.109 173.209 218.109 179.027C221.6 179.511 223.587 179.754 224.072 179.754C224.654 179.754 225.478 179.754 226.545 179.754C228.096 179.754 230.229 179.511 232.944 179.027C230.52 177.184 228.629 175.972 227.272 175.391C226.011 174.712 224.169 174.033 221.745 173.355C222.521 170.64 223.2 166.374 223.781 160.556C223.975 158.617 225.817 156.048 229.308 152.848C228.047 150.909 227.175 149.552 226.69 148.776C225.914 147.516 225.527 146.061 225.527 144.413C226.011 142.571 226.448 140.05 226.835 136.85C227.223 133.554 227.417 130.16 227.417 126.67H236.725L242.397 184.553C245.694 178.93 248.36 167.246 250.396 149.503C251.656 138.062 252.674 130.451 253.45 126.67H275.847V141.65Z" fill="white"/>
</svg>
